<?xml version="1.0" standalone="no"?>
<!DOCTYPE svg PUBLIC "-//W3C//DTD SVG 20010904//EN"
 "http://www.w3.org/TR/2001/REC-SVG-20010904/DTD/svg10.dtd">
<svg version="1.0" xmlns="http://www.w3.org/2000/svg"
 width="260.000000pt" height="260.000000pt" viewBox="0 0 260.000000 260.000000"
 preserveAspectRatio="xMidYMid meet">
<metadata>
Created by potrace 1.14, written by Peter Selinger 2001-2017
</metadata>
<g transform="translate(0.000000,260.000000) scale(0.100000,-0.100000)"
fill="#000000" stroke="none">
<path d="M1125 2413 c-70 -11 -222 -55 -279 -80 -187 -83 -353 -219 -471 -388
-76 -110 -115 -185 -148 -291 -115 -364 -49 -748 178 -1044 56 -73 186 -196
256 -242 254 -168 545 -231 830 -179 133 24 212 51 326 111 344 180 567 511
603 893 51 557 -298 1052 -845 1198 -63 17 -115 22 -250 24 -93 2 -183 1 -200
-2z m695 -458 c38 -19 60 -63 60 -116 0 -33 -6 -47 -34 -75 -29 -29 -41 -34
-79 -34 -52 0 -96 30 -117 79 -13 32 -20 36 -85 46 -22 4 -53 10 -70 15 -85
23 -82 24 -94 -28 -39 -175 -62 -285 -59 -287 2 -2 44 -11 94 -19 111 -20 188
-45 270 -90 l61 -34 29 19 c41 27 126 26 171 -2 42 -26 73 -85 73 -139 0 -49
-29 -111 -63 -133 -21 -13 -25 -26 -29 -86 -9 -125 -73 -223 -203 -310 -128
-85 -260 -122 -440 -123 -183 0 -317 36 -447 121 -131 85 -196 183 -205 308
-5 64 -9 77 -30 90 -34 22 -63 84 -63 133 0 54 31 113 73 139 45 28 130 29
171 2 l29 -19 61 34 c85 46 163 72 276 90 52 8 97 20 101 25 3 6 21 83 38 172
42 204 48 227 69 227 9 0 74 -12 145 -26 l127 -27 23 20 c50 46 96 54 147 28z"/>
<path d="M1010 1279 c-63 -26 -91 -82 -70 -143 15 -47 42 -68 92 -73 88 -9
148 69 115 149 -24 57 -86 88 -137 67z"/>
<path d="M1510 1273 c-50 -26 -76 -82 -61 -132 17 -57 44 -76 106 -76 62 0 89
19 106 75 28 91 -68 175 -151 133z"/>
<path d="M1023 893 c-9 -23 49 -70 112 -89 81 -25 201 -29 288 -10 110 25 194
92 141 113 -9 3 -24 1 -33 -6 -62 -44 -105 -55 -231 -55 -107 0 -132 3 -171
21 -26 12 -50 26 -53 32 -11 17 -46 13 -53 -6z"/>
</g>
</svg>
