<?xml version="1.0" encoding="utf-8"?>
<svg version="1.1" id="Layer_1" xmlns="http://www.w3.org/2000/svg" xmlns:xlink="http://www.w3.org/1999/xlink" x="0px" y="0px" viewBox="0 0 32 32" style="enable-background:new 0 0 32 32;" xml:space="preserve">
	<g id="reddit-logo">
		<path d="M14,17.7c0-0.9-0.7-1.7-1.7-1.7c-0.9,0-1.7,0.7-1.7,1.7c0,0.9,0.7,1.7,1.7,1.7C13.3,19.3,14,18.6,14,17.7z M19.3,21.5
			c-0.7,0.7-2.3,1-3.3,1s-2.6-0.3-3.3-1c-0.2-0.2-0.4-0.2-0.6,0c-0.2,0.2-0.2,0.4,0,0.6c0,0,0,0,0,0c1.1,1.1,3.3,1.2,4,1.2
			c0.6,0,2.8-0.1,4-1.2c0.2-0.2,0.2-0.4,0-0.6C19.8,21.3,19.5,21.3,19.3,21.5z M19.7,16c-0.9,0-1.7,0.7-1.7,1.7c0,0.9,0.7,1.7,1.7,1.7
			c0.9,0,1.7-0.7,1.7-1.7C21.3,16.7,20.6,16,19.7,16z M16,0C7.2,0,0,7.2,0,16s7.2,16,16,16s16-7.2,16-16S24.8,0,16,0z M26,17.7
			c-0.2,0.2-0.4,0.3-0.7,0.5c0,0.2,0.1,0.5,0.1,0.7c0,3.6-4.2,6.5-9.3,6.5c-5.2,0-9.3-2.9-9.3-6.5c0-0.2,0-0.5,0.1-0.7
			c-0.8-0.4-1.4-1.2-1.4-2.1c0-1.3,1-2.3,2.3-2.3c0.6,0,1.2,0.2,1.6,0.7c1.8-1.3,4-1.9,6.2-2l-1.1-5L11,8.1c0,0.9-0.8,1.6-1.7,1.6
			c-0.9,0-1.6-0.8-1.6-1.7c0-0.9,0.8-1.6,1.7-1.6c0.6,0,1.1,0.4,1.4,0.9l3.9-0.8c0.2,0,0.4,0.1,0.5,0.3l1.2,5.6c2.3,0,4.5,0.7,6.3,2
			c0.9-0.9,2.4-0.9,3.3,0.1C26.9,15.3,26.9,16.8,26,17.7z"/>
	</g>
</svg>
