<?xml version="1.0" encoding="utf-8"?>
<!-- Generator: Adobe Illustrator 25.2.3, SVG Export Plug-In . SVG Version: 6.00 Build 0)  -->
<svg version="1.1" id="Layer_1" xmlns="http://www.w3.org/2000/svg" xmlns:xlink="http://www.w3.org/1999/xlink" x="0px" y="0px" viewBox="0 0 32 32" style="enable-background:new 0 0 32 32;" xml:space="preserve">
	<path d="M18,17.7c0-0.9,0.7-1.7,1.7-1.7c0.9,0,1.7,0.7,1.7,1.7c0,0.9-0.7,1.7-1.7,1.7C18.7,19.3,18,18.6,18,17.7z M12.7,21.5
		c0.7,0.7,2.3,1,3.3,1s2.6-0.3,3.3-1c0.2-0.2,0.4-0.2,0.6,0c0.2,0.2,0.2,0.4,0,0.6c0,0,0,0,0,0c-1.1,1.1-3.3,1.2-4,1.2
		c-0.6,0-2.8-0.1-4-1.2c-0.2-0.2-0.2-0.4,0-0.6C12.2,21.3,12.5,21.3,12.7,21.5z M12.3,16c0.9,0,1.7,0.7,1.7,1.7
		c0,0.9-0.7,1.7-1.7,1.7c-0.9,0-1.7-0.7-1.7-1.7C10.7,16.7,11.4,16,12.3,16z M16,0c8.8,0,16,7.2,16,16s-7.2,16-16,16S0,24.8,0,16
		S7.2,0,16,0z M6,17.7c0.2,0.2,0.4,0.3,0.7,0.5c0,0.2-0.1,0.5-0.1,0.7c0,3.6,4.2,6.5,9.3,6.5c5.2,0,9.3-2.9,9.3-6.5
		c0-0.2,0-0.5-0.1-0.7c0.8-0.4,1.4-1.2,1.4-2.1c0-1.3-1-2.3-2.3-2.3c-0.6,0-1.2,0.2-1.6,0.7c-1.8-1.3-4-1.9-6.2-2l1.1-5L21,8.1
		c0,0.9,0.8,1.6,1.7,1.6c0.9,0,1.6-0.8,1.6-1.7c0-0.9-0.8-1.6-1.7-1.6c-0.6,0-1.1,0.4-1.4,0.9l-3.9-0.8c-0.2,0-0.4,0.1-0.5,0.3
		l-1.2,5.6c-2.3,0-4.5,0.7-6.3,2c-0.9-0.9-2.4-0.9-3.3,0.1C5.1,15.3,5.1,16.8,6,17.7z"/>
</svg>
